<?xml version="1.0" encoding="UTF-8" standalone="no"?>
<!DOCTYPE svg PUBLIC "-//W3C//DTD SVG 1.1//EN" "http://www.w3.org/Graphics/SVG/1.1/DTD/svg11.dtd">
<svg width="100%" height="100%" viewBox="0 0 24 24" version="1.1" xmlns="http://www.w3.org/2000/svg" xmlns:xlink="http://www.w3.org/1999/xlink" xml:space="preserve" xmlns:serif="http://www.serif.com/" style="fill-rule:evenodd;clip-rule:evenodd;stroke-linejoin:round;stroke-miterlimit:2;">
    <path d="M2.5,17C1.801,13.703 1.801,10.297 2.5,7C2.687,6.32 3.22,5.787 3.9,5.6C9.263,4.711 14.737,4.711 20.1,5.6C20.78,5.787 21.313,6.32 21.5,7C22.199,10.297 22.199,13.703 21.5,17C21.313,17.68 20.78,18.213 20.1,18.4C14.737,19.289 9.263,19.289 3.9,18.4C3.22,18.213 2.687,17.68 2.5,17" style="fill:rgb(30,77,167);fill-rule:nonzero;"/>
    <g id="Layer1">
    </g>
    <g transform="matrix(0.518852,0,0,0.518852,5.773773,5.773773)">
        <g id="Layer2">
            <path d="M4,14C3.999,14 3.998,14 3.997,14C3.448,14 2.997,13.549 2.997,13C2.997,12.771 3.076,12.548 3.22,12.37L13.12,2.17C13.215,2.06 13.353,1.997 13.498,1.997C13.772,1.997 13.998,2.223 13.998,2.497C13.998,2.542 13.992,2.587 13.98,2.63L12.06,8.65C12.018,8.762 11.997,8.88 11.997,9C11.997,9.549 12.448,10 12.997,10C12.998,10 12.999,10 13,10L20,10C20.001,10 20.002,10 20.003,10C20.552,10 21.003,10.451 21.003,11C21.003,11.229 20.924,11.452 20.78,11.63L10.88,21.83C10.785,21.94 10.647,22.003 10.502,22.003C10.228,22.003 10.002,21.777 10.002,21.503C10.002,21.458 10.008,21.413 10.02,21.37L11.94,15.35C11.982,15.238 12.003,15.12 12.003,15C12.003,14.451 11.552,14 11.003,14C11.002,14 11.001,14 11,14L4,14Z" style="fill:white;fill-rule:nonzero;"/>
        </g>
    </g>
</svg>
